<?xml version="1.0" encoding="UTF-8"?><svg id="a" xmlns="http://www.w3.org/2000/svg" viewBox="0 0 505.13 505.13"><path d="M252.57,505.13C113.3,505.13,0,391.83,0,252.57S113.3,0,252.57,0s252.57,113.3,252.57,252.57-113.3,252.57-252.57,252.57Zm-74.22-57.7c23.75,9.07,49.24,13.82,74.6,13.82,36.3,0,72.24-9.68,103.92-27.98,9.36-5.41,12.97-8.26,14.35-9.61-.11-.31-.24-.63-.34-.91-6.64-17.41-7.73-40.32,56.8-111.08,16.84-18.56,26.89-45.74,11.35-64.55-8.23-10.06-18.1-18.53-28.58-24.54-12.96-7.52-27.53-11.33-43.35-11.33-18.17,0-37.62,5.04-56.26,14.59-25.62,13.07-26.86,47.11-25.88,83.83,1.43,50.57-24.86,97.65-68.6,122.86-12.13,6.92-24.85,11.9-37.99,14.9ZM46.41,269.98c18.39,2.98,38.76,13.53,67.72,104.84,6.22,19.65,21.66,42.58,44.71,42.58,1.99,0,4.04-.18,6.09-.52,12.57-2.09,24.85-6.44,35.53-12.56,27.78-16,44.88-48.03,46.92-87.87,1.41-28.67-27.49-46.81-59.82-64.37-44.52-24.14-72.18-70.43-72.18-120.8,0-13.84,2.06-27.42,6.13-40.54-48.63,39.41-77.21,98.75-77.21,161.82,0,10.84,.67,15.39,1.15,17.25,.33,.06,.67,.11,.97,.16ZM198.1,69.52c-31.14,0-40.94,17.25-43.7,24.67-4.49,12.39-6.88,25.24-6.88,37.09,0,32.03,19.19,62.87,52.65,84.61,6.55,4.25,13.64,6.32,21.66,6.32,10.88,0,24.77-2.01,63.87-25.95,21.81-13.34,46.83-20.38,72.35-20.38,23.95,0,47.61,6.34,68.42,18.33,11.97,6.94,22.67,15.5,31.97,25.54-9.92-61.81-47.04-116.21-101.56-147.72-9.39-5.43-13.66-7.11-15.51-7.62-.22,.27-.45,.55-.65,.79-6.75,8.28-16.49,17.11-46.77,17.11-19.41,0-44.88-3.53-77.87-10.78-6.02-1.34-12.05-2.02-17.97-2.02Z"/><path d="M252.57,6.62C118.66,6.62,10,115.28,10,249.19s108.66,242.57,242.57,242.57,242.57-108.66,242.57-242.57S386.47,6.62,252.57,6.62ZM104.6,374.46c-49.06-154.68-70.31-61.04-70.31-125.28,0-74.62,37.55-140.62,94.76-179.93,4.15-2.88,9.43,2.24,7.35,6.87-7.03,15.82-11.03,33.4-11.03,51.77,0,48.42,27.16,90.44,66.95,112.02,31.48,17.1,66.79,37.87,65.04,73.66-1.92,37.55-17.26,76.06-51.93,96.04-11.98,6.87-25.41,11.51-38.83,13.74-30.2,5.11-52.89-20.13-62-48.9Zm330.45-59.44c-109.3,119.85-17.58,91.4-73.19,123.52-64.72,37.39-140.46,37.87-203.1,7.99-4.63-2.24-2.72-9.27,2.24-9.75,17.26-1.76,34.36-7.19,50.33-16.3,41.87-24.13,64.88-68.71,63.6-113.93-.96-35.79-.64-76.7,31.32-93,33.4-17.1,74.46-23.17,109.14-3.04,11.98,6.87,22.69,16.3,31.32,26.85,19.02,23.01,8.63,55.29-11.66,77.66Zm25.73-80.06c-10.23-14.06-23.33-26.21-39.31-35.47-41.87-24.13-91.88-21.73-130.55,1.92-30.52,18.7-66.15,38.99-96.2,19.49-31.48-20.45-57.21-52.89-57.21-93,0-13.9,2.88-27.8,7.51-40.59,10.55-28.28,43.78-35.47,73.19-28.92,158.36,34.83,88.05-30.52,143.65,1.6,64.72,37.39,102.91,102.75,108.5,171.94,.32,5.27-6.71,7.19-9.59,3.04Z"/></svg>