<?xml version="1.0" encoding="UTF-8"?><svg id="a" xmlns="http://www.w3.org/2000/svg" viewBox="0 0 485.13 485.13"><path d="M242.57,0C108.66,0,0,108.66,0,242.57s108.66,242.57,242.57,242.57,242.57-108.66,242.57-242.57S376.47,0,242.57,0ZM94.6,367.84C45.54,213.16,24.29,306.8,24.29,242.57c0-74.62,37.55-140.62,94.76-179.93,4.15-2.88,9.43,2.24,7.35,6.87-7.03,15.82-11.03,33.4-11.03,51.77,0,48.42,27.16,90.44,66.95,112.02,31.48,17.1,66.79,37.87,65.04,73.66-1.92,37.55-17.26,76.06-51.93,96.04-11.98,6.87-25.41,11.51-38.83,13.74-30.2,5.11-52.89-20.13-62-48.9Zm330.45-59.44c-109.3,119.85-17.58,91.4-73.19,123.52-64.72,37.39-140.46,37.87-203.1,7.99-4.63-2.24-2.72-9.27,2.24-9.75,17.26-1.76,34.36-7.19,50.33-16.3,41.87-24.13,64.88-68.71,63.6-113.93-.96-35.79-.64-76.7,31.32-93,33.4-17.1,74.46-23.17,109.14-3.04,11.98,6.87,22.69,16.3,31.32,26.85,19.02,23.01,8.63,55.29-11.66,77.66Zm25.73-80.06c-10.23-14.06-23.33-26.21-39.31-35.47-41.87-24.13-91.88-21.73-130.55,1.92-30.52,18.7-66.15,38.99-96.2,19.49-31.48-20.45-57.21-52.89-57.21-93,0-13.9,2.88-27.8,7.51-40.59,10.55-28.28,43.78-35.47,73.19-28.92,158.36,34.83,88.05-30.52,143.65,1.6,64.72,37.39,102.91,102.75,108.5,171.94,.32,5.27-6.71,7.19-9.59,3.04Z"/></svg>