<?xml version="1.0" encoding="UTF-8"?><svg id="a" xmlns="http://www.w3.org/2000/svg" viewBox="0 0 551.65 374.92"><defs><style>.b{fill:#f70;}</style></defs><path class="b" d="M87.85,286.04c-17.76-.92-31.53-3.8-41.33-8.65-9.8-4.84-16.66-12.11-20.58-21.79-3.92-9.68-5.53-22.83-4.84-39.43H62.6c.46,10.38,2.53,17.99,6.23,22.83,3.69,4.84,10.03,8.07,19.02,9.68v-65.71c-17.07-5.3-30.21-10.72-39.43-16.26-9.23-5.53-15.8-12.05-19.71-19.54-3.92-7.49-5.88-16.89-5.88-28.19,0-14.29,1.96-25.59,5.88-33.9,3.92-8.3,10.55-14.41,19.89-18.33,9.34-3.92,22.42-6.34,39.26-7.26V22.48h33.2V59.49c15.91,1.16,28.24,3.86,37.01,8.13,8.76,4.27,15.05,10.78,18.85,19.54,3.8,8.77,5.71,20.53,5.71,35.28h-42.2c-.46-7.61-2.08-13.37-4.84-17.29-2.77-3.92-7.61-6.57-14.53-7.96v56.72c17.29,5.53,30.61,11.24,39.95,17.12,9.34,5.88,15.96,12.97,19.89,21.27,3.92,8.3,5.88,18.91,5.88,31.82,0,14.76-2.02,26.46-6.05,35.11-4.04,8.65-10.78,15.05-20.23,19.2-9.46,4.15-22.6,6.69-39.43,7.61v39.08h-33.2v-39.08Zm-18.5-154.6c3.57,3.46,9.74,7.04,18.5,10.72v-46c-8.77,.92-14.93,3.17-18.5,6.74s-5.36,9.28-5.36,17.12c0,4.15,1.78,7.96,5.36,11.41Zm70.73,110.68c3.69-3.92,5.53-9.8,5.53-17.64,0-6.68-1.85-12.33-5.53-16.95-3.69-4.61-10.03-8.99-19.02-13.14v54.99c8.99-.92,15.33-3.34,19.02-7.26Z"/><path class="b" d="M243.84,227.24h65.72v63.29h-65.72v-63.29Z"/><path class="b" d="M382.53,230h-34.93l6.92-33.9h35.28l9.68-46.69h-34.59l6.92-33.55h35.28l12.8-60.53h36.66l-13.14,60.53h34.24l13.14-60.53h37.01l-12.8,60.53h36.66l-6.92,33.55h-36.66l-10.03,46.69h36.66l-7.26,33.9h-36.32l-13.14,60.53h-37.35l12.8-60.53h-33.9l-12.8,60.53h-37.01l12.8-60.53Zm78.86-32.51l10.72-49.46h-36.32l-10.72,49.46h36.32Z"/></svg>