<?xml version="1.0" encoding="utf-8"?>
<!-- Generator: Adobe Illustrator 26.2.1, SVG Export Plug-In . SVG Version: 6.00 Build 0)  -->
<svg version="1.1" id="Layer_1" xmlns="http://www.w3.org/2000/svg" xmlns:xlink="http://www.w3.org/1999/xlink" x="0px" y="0px"
	 viewBox="0 0 700 700" style="enable-background:new 0 0 700 700;" xml:space="preserve">
<style type="text/css">
	.st0{fill:none;}
	.st1{fill:#FF7700;}
	.st2{fill:#FFFFFF;}
	.st3{font-family:'Gotham-Bold';}
	.st4{font-size:129.9177px;}
	.st5{letter-spacing:-3.1;}
</style>
<g>
	<path class="st0" d="M419.3,125.7c-1.1-1.1-3.4-0.6-3.4,1.1v66.1c0,16.2,13.4,29.7,29.7,29.7h61.6l0,0c1.7,0,2.2-2.2,1.7-3.4
		L419.3,125.7z"/>
	<path class="st1" d="M532.9,217c0-4.5-1.7-9-5-12.3l-94.1-100.8c-3.4-3.9-8.4-5.6-13.4-5.6H185.2c-16.2,0-29.7,13.4-29.7,29.7V572
		c0,16.2,13.4,29.7,29.7,29.7h318.6c16.2,0,29.7-13.4,29.7-29.7L532.9,217z M494.7,532.9h-283v-146h283V532.9z M507.2,222.6
		L507.2,222.6l-61.6,0c-16.2,0-29.7-13.4-29.7-29.7v-66.1c0-1.7,2.2-2.2,3.4-1.1l89.6,93.5C509.4,220.4,508.9,222.6,507.2,222.6z"/>
	<path class="st1" d="M388.5,495.3h7.8c4.5,0,6.7-2.2,6.7-6.7v-32.5c0-5.6-1.1-14.6-1.1-14.6s3.9,9,7.3,14.6l20.7,34.7
		c2.2,3.4,4.5,4.5,7.8,4.5h9c4.5,0,6.7-2.2,6.7-6.7l0-71.7c0-4.5-2.2-6.7-6.7-6.7h-7.8c-4.5,0-6.7,2.2-6.7,6.7v33l-26.9-34.7
		c-1.7-3.4-3.9-4.5-7.8-4.5h-9c-4.5,0-6.7,2.2-6.7,6.7l0,71.1C381.7,493.1,384,495.3,388.5,495.3z"/>
	<path class="st1" d="M316.8,495.3h42c4.5,0,6.7-2.2,6.7-6.7l0.6,0l0-4.5c0-4.5-2.2-6.7-6.7-6.7h-28v-59.9c0-4.5-2.2-6.7-6.7-6.7
		h-7.8c-4.5,0-6.7,2.2-6.7,6.7l0,71.1C310.1,493.1,312.3,495.3,316.8,495.3z"/>
	<path class="st1" d="M260.8,496.4L260.8,496.4c19,0,29.7-12.3,30.2-26.3c0-26.3-37-23.5-37-35.8c0-2.8,2.2-5.6,9-5.6
		c5.6,0,9.5,2.2,13.4,3.9c3.4,1.7,6.7,2.2,9-2.2l2.8-5.6c1.7-3.4,1.1-6.7-2.2-9c-4.5-2.8-13.4-6.2-23-6.2
		c-17.4,0-30.2,10.1-30.2,25.8c0,26.3,37,24.6,37,36.4c0,2.8-2.8,5.6-9,5.6c-7.3,0-12.3-3.4-15.1-5c-3.9-2.2-6.7-1.7-9,1.7l-3.9,5
		c-3.4,4.5-1.1,6.7,1.1,9C238.4,491.4,249,496.4,260.8,496.4z"/>
	<path class="st1" d="M211.7,532.9h283v-146h-283V532.9z M388.5,410.8h9c3.9,0,6.2,1.1,7.8,4.5l26.9,34.7v-33c0-4.5,2.2-6.7,6.7-6.7
		h7.8c4.5,0,6.7,2.2,6.7,6.7l0,71.7c0,4.5-2.2,6.7-6.7,6.7h-9c-3.4,0-5.6-1.1-7.8-4.5l-20.7-34.7c-3.4-5.6-7.3-14.6-7.3-14.6
		s1.1,9,1.1,14.6v32.5c0,4.5-2.2,6.7-6.7,6.7h-7.8c-4.5,0-6.7-2.2-6.7-6.7l0-71.1C381.7,413,384,410.8,388.5,410.8z M316.8,410.8
		h7.8c4.5,0,6.7,2.2,6.7,6.7v59.9h28c4.5,0,6.7,2.2,6.7,6.7l0,4.5l-0.6,0c0,4.5-2.2,6.7-6.7,6.7h-42c-4.5,0-6.7-2.2-6.7-6.7l0-71.1
		C310.1,413,312.3,410.8,316.8,410.8z M232.8,479.1l3.9-5c2.2-3.4,5-3.9,9-1.7c2.8,1.7,7.8,5,15.1,5c6.2,0,9-2.8,9-5.6
		c0-11.8-37-10.1-37-36.4c0-15.7,12.9-25.8,30.2-25.8c9.5,0,18.5,3.4,23,6.2c3.4,2.2,3.9,5.6,2.2,9l-2.8,5.6c-2.2,4.5-5.6,3.9-9,2.2
		c-3.9-1.7-7.8-3.9-13.4-3.9c-6.7,0-9,2.8-9,5.6c0,12.3,37,9.5,37,35.8c-0.6,14-11.2,26.3-30.2,26.3l0,0c-11.8,0-22.4-5-26.9-8.4
		C231.7,485.8,229.4,483.6,232.8,479.1z"/>
</g>
<text transform="matrix(0.9737 0 0 1 194.4014 491.2034)" class="st2 st3 st4 st5">CWS</text>
</svg>
