<?xml version="1.0" encoding="utf-8"?>
<!-- Generator: Adobe Illustrator 26.2.1, SVG Export Plug-In . SVG Version: 6.00 Build 0)  -->
<svg version="1.1" id="a" xmlns="http://www.w3.org/2000/svg" xmlns:xlink="http://www.w3.org/1999/xlink" x="0px" y="0px"
	 viewBox="0 0 600 600" style="enable-background:new 0 0 600 600;" xml:space="preserve">
<style type="text/css">
	.st0{fill:#FF7700;}
	.st1{fill:#FFFFFF;}
</style>
<rect class="st0" width="600" height="600"/>
<path class="st1" d="M479.3,326.4c1.3-8.6,1.9-17.5,1.9-26.4s-0.7-17.8-1.9-26.4l-41-11.7c-3.2-11.5-7.8-22.5-13.6-32.7l20.7-37.2
	c-10.6-14.2-23.2-26.8-37.4-37.4l-37.2,20.7c-10.2-5.8-21.1-10.4-32.7-13.6l-11.7-41c-8.6-1.3-17.5-1.9-26.5-1.9s-17.8,0.7-26.4,1.9
	l-11.7,41c-11.5,3.2-22.5,7.8-32.7,13.6l-37.2-20.7c-14.2,10.6-26.8,23.2-37.4,37.4l20.7,37.2c-5.8,10.2-10.4,21.1-13.6,32.7
	l-41,11.7c-1.3,8.6-1.9,17.5-1.9,26.5s0.7,17.8,1.9,26.4l41,11.7c3.2,11.5,7.8,22.5,13.6,32.7l-20.7,37.2
	c10.6,14.2,23.2,26.8,37.4,37.4l37.2-20.7c10.2,5.8,21.1,10.4,32.7,13.6l11.7,41c8.6,1.3,17.5,1.9,26.4,1.9s17.8-0.7,26.4-1.9
	l11.7-41c11.5-3.2,22.5-7.8,32.7-13.6l37.2,20.7c14.2-10.6,26.8-23.2,37.4-37.4l-20.7-37.2c5.8-10.2,10.4-21.1,13.6-32.7
	L479.3,326.4L479.3,326.4z M300,377.7c-42.9,0-77.7-34.8-77.7-77.7s34.8-77.7,77.7-77.7s77.7,34.8,77.7,77.7S342.9,377.7,300,377.7z
	"/>
</svg>
