<?xml version="1.0" encoding="UTF-8"?><svg id="a" xmlns="http://www.w3.org/2000/svg" viewBox="0 0 517.98 517.98"><defs><style>.ar{fill:none;stroke-width:9px;}.ar,.as,.at,.au,.av,.aw,.ax,.ay,.b`,.ba,.bb{stroke:#000;}.as,.at,.au,.av,.aw,.ax,.ay,.b`,.ba,.bb{stroke-linejoin:round;}.at{stroke-width:3px;}.au{stroke-width:3px;}.av{stroke-width:3px;}.aw{stroke-width:3px;}.ax{stroke-width:3px;}.ay{stroke-width:3px;}.b`{stroke-width:6px;}.ba{stroke-width:6px;}.bb{stroke-width:6px;}</style></defs><g id="b" transform="translate(53, 53)"><path id="c" class="as" d="M216.07,185.78h65.63c40.39,0,40.39,40.39,0,40.39h-65.63v-40.39ZM59.56,372.59h201.95v-55.54h-45.44v-40.39h50.49c55.54,0,25.24,95.93,70.68,95.93h126.22v-95.93h-30.29v10.1c0,40.39-45.44,35.34-50.49,10.1s-25.24-45.44-30.29-45.44c75.73-40.39,30.29-121.17-30.29-121.17H84.8v55.54h50.49v131.27H59.56v55.54Z"/><g id="d"><circle class="ar" cx="258.99" cy="258.99" r="217.1"/><g id="e"><polygon id="f" class="ay" points="491.23 274.13 516.48 258.99 491.23 243.84 491.23 274.13"/><g transform="rotate(11.25)"><polygon id="g" class="ax" points="483.81 319.15 511.53 309.22 489.72 289.44 483.81 319.15"/></g><g transform="rotate(22.50)"><polygon id="h" class="aw" points="467.76 361.86 496.88 357.52 479.35 333.87 467.76 361.86"/></g><g transform="rotate(33.75)"><polygon id="i" class="at" points="443.68 400.61 473.08 402.04 460.51 375.42 443.68 400.61"/></g><g transform="rotate(45.00)"><polygon id="j" class="au" points="412.5 433.92 441.06 441.06 433.92 412.5 412.5 433.92"/></g><g transform="rotate(56.25)"><polygon id="k" class="at" points="375.42 460.51 402.04 473.08 400.61 443.68 375.42 460.51"/></g><g transform="rotate(67.50)"><polygon id="l" class="av" points="333.87 479.35 357.52 496.88 361.86 467.76 333.87 479.35"/></g><g transform="rotate(78.75)"><polygon id="m" class="ax" points="289.44 489.72 309.22 511.53 319.15 483.81 289.44 489.72"/></g><g transform="rotate(90.00)"><polygon id="n" class="ay" points="243.84 491.23 258.99 516.48 274.13 491.23 243.84 491.23"/></g><g transform="rotate(101.25)"><polygon id="o" class="ax" points="198.82 483.81 208.75 511.53 228.53 489.72 198.82 483.81"/></g><g transform="rotate(112.50)"><polygon id="p" class="av" points="156.12 467.76 160.45 496.88 184.11 479.35 156.12 467.76"/></g><g transform="rotate(123.75)"><polygon id="q" class="at" points="117.37 443.68 115.94 473.08 142.55 460.51 117.37 443.68"/></g><g transform="rotate(135.00)"><polygon id="r" class="au" points="84.06 412.5 76.92 441.06 105.48 433.92 84.06 412.5"/></g><g transform="rotate(146.25)"><polygon id="s" class="at" points="57.47 375.42 44.89 402.04 74.3 400.61 57.47 375.42"/></g><g transform="rotate(157.50)"><polygon id="t" class="aw" points="38.63 333.87 21.1 357.52 50.22 361.86 38.63 333.87"/></g><g transform="rotate(168.75)"><polygon id="u" class="ax" points="28.25 289.44 6.45 309.22 34.16 319.15 28.25 289.44"/></g><g transform="rotate(180.00)"><polygon id="v" class="ay" points="26.74 243.84 1.5 258.99 26.74 274.13 26.74 243.84"/></g><g transform="rotate(191.25)"><polygon id="w" class="ax" points="34.16 198.82 6.45 208.75 28.25 228.53 34.16 198.82"/></g><g transform="rotate(202.50)"><polygon id="x" class="aw" points="50.22 156.12 21.1 160.45 38.63 184.11 50.22 156.12"/></g><g transform="rotate(213.75)"><polygon id="y" class="at" points="74.3 117.37 44.89 115.94 57.47 142.55 74.3 117.37"/></g><g transform="rotate(225.00)"><polygon id="a`" class="au" points="105.48 84.06 76.92 76.92 84.06 105.48 105.48 84.06"/></g><g transform="rotate(236.25)"><polygon id="aa" class="at" points="142.55 57.47 115.94 44.89 117.37 74.3 142.55 57.47"/></g><g transform="rotate(247.50)"><polygon id="ab" class="av" points="184.11 38.63 160.45 21.1 156.12 50.22 184.11 38.63"/></g><g transform="rotate(258.75)"><polygon id="ac" class="ax" points="228.53 28.25 208.75 6.45 198.82 34.16 228.53 28.25"/></g><g transform="rotate(270.00)"><polygon id="ad" class="ay" points="274.13 26.74 258.99 1.5 243.84 26.74 274.13 26.74"/></g><g transform="rotate(281.25)"><polygon id="ae" class="ax" points="319.15 34.16 309.22 6.45 289.44 28.25 319.15 34.16"/></g><g transform="rotate(292.50)"><polygon id="af" class="av" points="361.86 50.22 357.52 21.1 333.87 38.63 361.86 50.22"/></g><g transform="rotate(303.75)"><polygon id="ag" class="at" points="400.61 74.3 402.04 44.89 375.42 57.47 400.61 74.3"/></g><g transform="rotate(315.00)"><polygon id="ah" class="au" points="433.92 105.48 441.06 76.92 412.5 84.06 433.92 105.48"/></g><g transform="rotate(326.25)"><polygon id="ai" class="at" points="460.51 142.55 473.08 115.94 443.68 117.37 460.51 142.55"/></g><g transform="rotate(337.50)"><polygon id="aj" class="aw" points="479.35 184.11 496.88 160.45 467.76 156.12 479.35 184.11"/></g><g transform="rotate(348.75)"><polygon id="ak" class="ax" points="489.72 228.53 511.53 208.75 483.81 198.82 489.72 228.53"/></g></g><g id="al"><polygon id="am" class="ba" points="223.65 46.94 258.99 82.28 294.33 46.94 223.65 46.94"/><g transform="rotate(72)"><polygon id="an" class="b`" points="449.74 159.85 427.05 204.38 471.58 227.07 449.74 159.85"/></g><g transform="rotate(144)"><polygon id="ao" class="bb" points="412.22 409.77 362.85 401.95 355.04 451.31 412.22 409.77"/></g><g transform="rotate(216)"><polygon id="ap" class="bb" points="162.94 451.31 155.12 401.95 105.76 409.77 162.94 451.31"/></g><g transform="rotate(288)"><polygon id="aq" class="b`" points="46.4 227.07 90.93 204.38 68.24 159.85 46.4 227.07"/></g></g></g></g></svg>